<?xml version="1.0" standalone="no"?>
<!DOCTYPE svg PUBLIC "-//W3C//DTD SVG 20010904//EN"
 "http://www.w3.org/TR/2001/REC-SVG-20010904/DTD/svg10.dtd">
<svg version="1.0" xmlns="http://www.w3.org/2000/svg"
 width="512.000000pt" height="512.000000pt" viewBox="0 0 512.000000 512.000000"
 preserveAspectRatio="xMidYMid meet">

<g transform="translate(0.000000,512.000000) scale(0.100000,-0.100000)"
fill="#000000" stroke="none">
<path d="M2378 4969 c-428 -53 -833 -302 -1071 -659 -114 -172 -180 -327 -227
-535 -39 -169 -36 -495 6 -650 4 -18 -4 -24 -64 -43 -212 -68 -433 -211 -603
-390 -205 -215 -338 -474 -395 -772 -27 -140 -25 -419 4 -556 133 -623 605
-1087 1222 -1200 134 -25 391 -25 525 0 266 49 509 163 713 335 l72 61 73 -61
c747 -628 1877 -399 2320 470 304 595 181 1313 -305 1776 -154 148 -367 278
-550 337 -60 19 -68 25 -64 43 42 155 45 479 6 650 -45 198 -111 358 -214 514
-226 346 -569 578 -976 661 -121 25 -352 34 -472 19z m316 -144 c49 -3 119
-12 155 -20 547 -125 958 -553 1058 -1099 22 -120 22 -371 0 -480 -9 -43 -18
-80 -19 -81 -2 -2 -30 2 -63 8 -85 15 -356 14 -445 -2 -289 -49 -541 -165
-754 -346 l-66 -56 -66 56 c-309 262 -715 393 -1105 356 -71 -6 -135 -14 -143
-17 -29 -11 -62 237 -52 394 44 694 577 1240 1261 1291 55 4 111 6 125 5 14
-2 65 -6 114 -9z m-969 -1820 c248 -40 470 -141 667 -303 38 -31 68 -57 68
-58 0 -1 -31 -44 -69 -94 -67 -90 -161 -258 -196 -352 l-17 -46 -67 23 c-196
67 -360 171 -517 329 -139 139 -224 263 -294 428 l-29 68 22 5 c84 18 321 18
432 0z m2108 -1 c15 -9 10 -23 -42 -129 -76 -157 -161 -273 -285 -393 -150
-143 -313 -245 -493 -306 l-71 -24 -17 46 c-35 94 -129 262 -196 352 l-70 93
42 36 c201 173 426 280 689 327 85 15 415 13 443 -2z m-2644 -176 c162 -357
513 -674 873 -790 37 -12 68 -27 68 -32 0 -6 -6 -47 -14 -91 -72 -408 31 -837
279 -1166 46 -62 60 -87 53 -97 -22 -27 -197 -153 -266 -192 -135 -76 -308
-135 -467 -160 -104 -17 -318 -14 -431 5 -547 93 -998 524 -1109 1062 -139
670 231 1337 874 1573 l76 28 12 -26 c7 -15 30 -66 52 -114z m1436 -375 c59
-83 182 -319 172 -330 -30 -29 -444 -29 -474 0 -18 19 207 407 237 407 5 0 34
-35 65 -77z m-189 -495 c94 -9 154 -9 248 0 68 6 130 14 139 18 52 19 73 -372
32 -584 -23 -119 -59 -222 -121 -347 -54 -110 -156 -265 -174 -265 -18 0 -120
155 -175 265 -93 188 -133 341 -142 555 -5 121 6 259 28 343 8 29 14 37 26 33
9 -4 71 -12 139 -18z"/>
</g>
</svg>
